<svg width="144" height="50" viewBox="0 0 144 50" fill="none" xmlns="http://www.w3.org/2000/svg">
<path d="M67.1836 0V48.8524H78.4016V6.15178L74.0591 0H67.1836Z" fill="white"/>
<path fill-rule="evenodd" clip-rule="evenodd" d="M17.3697 49.2142V15.9223H27.5021V11.5798H17.3697V0H6.51365V11.5798H0V15.9223H6.51365V49.2142H17.3697ZM55.0041 37.9963C53.9185 40.2881 50.3722 44.8718 44.8718 44.8718C39.3714 44.8718 36.0663 38.3582 35.1013 35.1013C38.72 36.1869 47.3325 37.7068 52.8329 35.1013C59.7084 31.8445 64.0509 23.1596 56.4516 15.5604C48.8524 7.96113 27.8639 13.0273 24.969 22.4359C22.074 31.8445 24.2452 49.2142 42.7006 49.2142C52.8329 49.2142 58.5022 43.1831 60.0703 40.1675L55.0041 37.9963ZM34.7394 31.1266C34.7394 26.2998 36.5303 16.6461 43.6937 16.6461C50.8571 16.6461 52.6356 21.8754 51.9847 24.9207C51.3214 28.0236 48.801 33.8848 34.7394 31.1266Z" fill="white"/>
<path d="M108.096 50C114.092 50 118.952 45.1396 118.952 39.1439C118.952 33.1482 114.092 28.2878 108.096 28.2878C102.1 28.2878 97.2399 33.1482 97.2399 39.1439C97.2399 45.1396 102.1 50 108.096 50Z" fill="#00BAEF"/>
<path d="M132.847 50C138.843 50 143.703 45.1396 143.703 39.1439C143.703 33.1482 138.843 28.2878 132.847 28.2878C126.851 28.2878 121.991 33.1482 121.991 39.1439C121.991 45.1396 126.851 50 132.847 50Z" fill="#FF8C00"/>
<path d="M132.847 25.2482C138.843 25.2482 143.703 20.3878 143.703 14.3921C143.703 8.39644 138.843 3.536 132.847 3.536C126.851 3.536 121.991 8.39644 121.991 14.3921C121.991 20.3878 126.851 25.2482 132.847 25.2482Z" fill="#FFB900"/>
</svg>
