<?xml version="1.0" encoding="utf-8"?>
<!-- Generator: Adobe Illustrator 22.1.0, SVG Export Plug-In . SVG Version: 6.00 Build 0)  -->
<svg version="1.1" id="Layer_1" xmlns="http://www.w3.org/2000/svg" xmlns:xlink="http://www.w3.org/1999/xlink" x="0px" y="0px"
	 viewBox="0 0 135.8 80.1" style="enable-background:new 0 0 135.8 80.1;" xml:space="preserve">
<style type="text/css">
	.st0{fill:none;stroke:#FFFFFF;stroke-width:2;stroke-miterlimit:10;}
	.st1{fill:#FFFFFF;}
</style>
<g>
	<path class="st0" d="M18.3,50.3l7.5-0.7l2.5-2.2L33,27.6l1.7,18.3l3.1,2.6l7.9-0.7l1.6-2l2,1.6l7.9-0.7l0.2,0
		c2.7-0.4,5.2-1.2,7.4-2.5c2.2-1.3,4.1-2.9,5.7-4.8c0.4-0.5,0.7-1,1.1-1.5l0.4,4.7L75,45l22-2.1l2.6-3.1l-0.5-5.4
		c0.7,0.8,1.4,1.5,2.1,2.1c2,1.6,4.2,2.9,6.7,3.7c1.9,0.6,4,0.9,6,0.9c0.6,0,1.3,0,1.9-0.1c2.7-0.3,5.3-1,7.7-2.3
		c2.3-1.3,4.3-2.9,5.9-4.9c1.6-2,2.9-4.2,3.7-6.7c0.8-2.5,1.1-5.2,0.9-8c-0.3-2.7-1-5.3-2.3-7.7c-1.3-2.3-2.9-4.3-4.9-5.9
		c-2-1.6-4.2-2.8-6.7-3.7c-1.9-0.6-4-0.9-6-0.9c-0.6,0-1.3,0-1.9,0.1c-2.7,0.3-5.3,1-7.7,2.3c-2.3,1.3-4.3,2.9-5.9,4.9
		c-0.6,0.8-1.2,1.6-1.7,2.5l-0.5-5.3l-3.1-2.6L71.2,5l-2.6,3.1l0.4,4.7c-0.4-0.5-0.9-0.9-1.4-1.3c-1.9-1.6-4.1-2.9-6.5-3.8
		c-2.2-0.8-4.5-1.2-6.9-1.2c-0.3,0-0.5,0-0.8,0l0,0.1l-0.2-0.1l-7.9,0.7l-1.7,2l-1.9-1.6L34,8.4L34,8.5l-0.2-0.3L25.4,9l-2.5,2.2
		l-3,13.2L14.7,12l-2.9-1.7L3.5,11L1.1,15l14.3,33.6L18.3,50.3z M60.9,28.6c-0.2,0.8-0.6,1.4-1,2c-0.3,0.4-0.7,0.8-1.2,1.1l-1-10.8
		c0.5,0.3,0.9,0.6,1.3,0.9c0.6,0.6,1.1,1.2,1.5,2c0.4,0.8,0.6,1.5,0.7,2.4C61.2,27.1,61.1,27.8,60.9,28.6z M95.8,29.3l-2.5,0.2
		l1.7-2.1C95.3,28.1,95.5,28.7,95.8,29.3L95.8,29.3z M94.2,18.2l-1.9-1.5l2.2-0.2C94.4,17,94.3,17.6,94.2,18.2z M114.1,14.6
		c0.7,0,1.3,0.1,1.9,0.3c0.8,0.3,1.6,0.7,2.2,1.2c0.6,0.5,1.2,1.2,1.6,1.9c0.4,0.7,0.6,1.5,0.7,2.4c0.1,0.9,0,1.7-0.3,2.5
		c-0.3,0.8-0.7,1.6-1.2,2.2c-0.5,0.6-1.2,1.2-1.9,1.6c-0.7,0.4-1.5,0.6-2.4,0.7c-0.2,0-0.4,0-0.7,0c0,0,0,0,0,0
		c-0.7,0-1.3-0.1-1.9-0.3c-0.8-0.3-1.6-0.7-2.2-1.2c-0.7-0.5-1.2-1.2-1.6-1.9c-0.4-0.7-0.6-1.5-0.7-2.4c-0.1-0.9,0-1.7,0.3-2.5
		c0.3-0.8,0.7-1.5,1.2-2.2c0.5-0.6,1.2-1.2,1.9-1.6c0.7-0.4,1.5-0.6,2.4-0.7C113.7,14.6,113.9,14.6,114.1,14.6z"/>
	<path class="st0" d="M73.7,65l0.6-0.8l-0.4-4l-0.7-0.6l1.8-2.2l-0.4-4l-3.1-2.6l-11.3,1.1l-0.8,1L58.4,52l-4.2,0.4l-2.5,2.2
		L50.9,58l-1.5-3.2l-2.8-1.6l-4.2,0.4l-2.6,2.9l0.1,2.8l-1.5-3.4l-2.9-1.7l-3.8,0.4l-2.5,2.2l-1.8,7.6l-1.1-0.9l0.8-1l-0.4-4
		c-1.2-1-2.6-1.8-4.1-2.2c-1.1-0.3-2.2-0.5-3.4-0.5c-0.4,0-0.7,0-1.1,0.1c-1.5,0.1-2.9,0.6-4.3,1.3c-1.4,0.7-2.6,1.7-3.6,2.9
		c-1,1.2-1.8,2.6-2.2,4.1c-0.4,1.5-0.6,2.9-0.4,4.4C7.9,70,8.3,71.4,9,72.8c0.7,1.4,1.7,2.6,2.9,3.6c1.2,1,2.6,1.8,4.1,2.2
		c1.1,0.3,2.2,0.5,3.3,0.5c0.4,0,0.7,0,1.1-0.1c0.6-0.1,1.2-0.2,1.8-0.3c0.2-0.1,0.5-0.1,0.7-0.2l0.3,0.2l4.1-0.4l0.4-0.5l0.3,0.4
		l4.3-0.4l2.5-2.2l0-0.2l1.4-0.1l0.1,0.2l2.9,1.7l4.3-0.4l0,0l0,0l4.1-0.4l1.2-1.4l1.9,1.1l4-0.4l1.5-1.3l1.3,1.1l4-0.4l0.4-0.5
		l0.5,0.4L73.8,74l2.6-3.1l-0.4-4L73.7,65z"/>
	<path class="st0" d="M134.4,61.4l-3.1-2.6l-2.5,0.2l4.2-9.9l-2.9-3.9L117,46.4l-1.2,1.4l-1.3-1.1l-4,0.4l-1.1,1.3l-1.3-1.1l-4,0.4
		l-2.4,2.9l-2.9-2.4l-4,0.4l-2.3,2.8c-0.9-0.6-1.8-1-2.8-1.3c-1.1-0.4-2.3-0.6-3.5-0.6c-0.4,0-0.7,0-1.1,0.1
		c-1.6,0.1-3.1,0.6-4.4,1.4c-1.3,0.7-2.5,1.7-3.4,2.8c-0.9,1.1-1.7,2.4-2.1,3.9c-0.5,1.5-0.7,3-0.5,4.6c0.1,1.6,0.6,3.1,1.4,4.4
		c0.7,1.3,1.7,2.5,2.8,3.4c1.1,0.9,2.4,1.7,3.9,2.1c1.1,0.4,2.3,0.6,3.5,0.6c0.4,0,0.7,0,1.1-0.1c0.5-0.1,1.1-0.1,1.6-0.3l0,0.1
		l4,0.3l3.1-2.6l0.1-1.7c0.2,0.2,0.4,0.4,0.6,0.6c1,0.8,2,1.3,3.2,1.7c0.9,0.3,1.8,0.4,2.7,0.4c0.3,0,0.6,0,0.9,0l0.1,0
		c1.3-0.1,2.5-0.5,3.6-1.1c1-0.5,1.8-1.2,2.5-2l2.8,2.3l4-0.4l0.9-1l0.7,0.9l14-1.3l2.6-3.1L134.4,61.4z M118.2,56.1l1.3-0.1
		l-1.1,2.5L118.2,56.1z"/>
</g>
<g>
	<path class="st1" d="M26.5,14.5l8.4-0.8l-8.5,35.7l-7.5,0.7L4.6,16.6l8.3-0.8l8.6,20.6L26.5,14.5z"/>
	<path class="st1" d="M46.3,47.6l-7.9,0.7l-3.2-34.4l7.9-0.7L46.3,47.6z"/>
	<path class="st1" d="M54.6,12c2.3-0.1,4.5,0.3,6.6,1c2.1,0.8,4,1.9,5.6,3.3c1.6,1.4,3,3.1,4,5.1c1.1,2,1.7,4.1,1.9,6.5
		c0.2,2.3,0,4.5-0.7,6.6c-0.7,2.1-1.7,4-3,5.6c-1.3,1.7-3,3.1-4.9,4.2c-1.9,1.1-4,1.8-6.4,2.2l-7.9,0.7l-3.2-34.5L54.6,12L54.6,12z
		 M57.1,38.6c1.2-0.2,2.3-0.7,3.3-1.3c1-0.6,1.8-1.4,2.5-2.2c0.7-0.9,1.2-1.9,1.5-3c0.3-1.1,0.5-2.2,0.3-3.4c-0.1-1.2-0.4-2.4-1-3.4
		c-0.5-1.1-1.2-2-2.1-2.8c-0.9-0.8-1.8-1.4-2.9-1.9c-1.1-0.4-2.2-0.7-3.5-0.7L57.1,38.6z"/>
	<path class="st1" d="M95.1,16.3L81,17.7l0.5,5.2L93,21.8l0.7,7.9l-11.5,1.1l0.5,5.4l14.1-1.3l0.7,7.9l-22,2.1l-3.2-34.3l22-2.1
		L95.1,16.3z"/>
	<path class="st1" d="M113.3,6.6c2.4-0.2,4.6,0,6.8,0.7c2.2,0.7,4.1,1.8,5.8,3.2c1.7,1.4,3.1,3.1,4.2,5.1c1.1,2,1.8,4.2,2,6.6
		c0.2,2.4,0,4.6-0.7,6.8c-0.7,2.2-1.8,4.1-3.2,5.8c-1.4,1.7-3.1,3.1-5.1,4.2c-2,1.1-4.2,1.8-6.6,2c-2.4,0.2-4.6,0-6.8-0.7
		c-2.2-0.7-4.1-1.8-5.8-3.2c-1.7-1.4-3.1-3.1-4.2-5.1c-1.1-2-1.8-4.2-2-6.6c-0.2-2.4,0-4.6,0.7-6.8c0.7-2.2,1.8-4.1,3.2-5.8
		c1.4-1.7,3.1-3.1,5.1-4.2C108.7,7.5,110.9,6.8,113.3,6.6z M115.8,33.1c1.3-0.1,2.5-0.5,3.5-1.1c1.1-0.6,2-1.3,2.8-2.3
		c0.8-0.9,1.3-2,1.7-3.1c0.4-1.2,0.5-2.4,0.4-3.7c-0.1-1.3-0.5-2.5-1.1-3.5c-0.6-1.1-1.3-2-2.3-2.8c-0.9-0.8-2-1.3-3.1-1.7
		c-1.2-0.4-2.4-0.5-3.7-0.4c-1.3,0.1-2.5,0.5-3.5,1.1c-1.1,0.6-2,1.3-2.8,2.3c-0.8,0.9-1.3,2-1.7,3.1c-0.4,1.2-0.5,2.4-0.4,3.7
		c0.1,1.3,0.5,2.5,1.1,3.5c0.6,1.1,1.3,2,2.3,2.8c0.9,0.8,2,1.3,3.1,1.7C113.3,33,114.5,33.2,115.8,33.1z"/>
	<path class="st1" d="M27,68.4l0.9,9.8l-4.1,0.4l0-0.4c-0.4,0.2-0.9,0.4-1.3,0.5c-0.5,0.1-0.9,0.2-1.4,0.2c-1.1,0.1-2.3,0-3.4-0.3
		c-1.1-0.3-2.2-0.9-3.1-1.7c-0.9-0.8-1.7-1.7-2.2-2.7c-0.5-1-0.8-2.1-0.9-3.3c-0.1-1.1,0-2.3,0.3-3.4c0.3-1.1,0.9-2.2,1.7-3.1
		c0.8-0.9,1.7-1.7,2.7-2.2c1-0.5,2.1-0.9,3.3-1c1.1-0.1,2.3,0,3.4,0.3c1.1,0.3,2.2,0.9,3.1,1.7l-2.6,3.1c-0.5-0.4-1.1-0.7-1.7-0.9
		s-1.2-0.2-1.8-0.2c-0.6,0.1-1.2,0.2-1.8,0.5s-1.1,0.7-1.5,1.2c-0.4,0.5-0.7,1.1-0.9,1.7c-0.2,0.6-0.2,1.2-0.2,1.8
		c0.1,0.6,0.2,1.2,0.5,1.8c0.3,0.6,0.7,1.1,1.2,1.5c0.5,0.4,0.9,0.7,1.5,0.8c0.5,0.2,1.1,0.3,1.6,0.3c0.6,0,1.1-0.1,1.6-0.3
		c0.5-0.2,1-0.5,1.4-0.9l-0.1-0.9l-3.5,0.3l-0.4-4L27,68.4z"/>
	<path class="st1" d="M39.8,77.1l-0.9-2.1l-5.5,0.5l-0.5,2.2l-4.3,0.4L33,60.1l3.8-0.4l7.3,17L39.8,77.1z M34.4,71.4l2.8-0.3
		L35.5,67L34.4,71.4z"/>
	<path class="st1" d="M55.3,58l4.2-0.4L62.2,75l-4,0.4L57,68.3l-1.8,7.4l-4,0.4L48,68.8l0.2,7.5l-4.1,0.4l-0.5-17.7l4.2-0.4
		l4.9,10.6L55.3,58z"/>
	<path class="st1" d="M73.1,60.4l-7.2,0.7l0.2,2.7l5.9-0.5l0.4,4l-5.9,0.5l0.3,2.8l7.2-0.7l0.4,4l-11.3,1.1l-1.6-17.5l11.3-1.1
		L73.1,60.4z"/>
	<path class="st1" d="M95.7,63c0.1,1.2,0,2.3-0.4,3.4c-0.3,1.1-0.9,2.1-1.6,2.9l1.2,1.4l-3.1,2.6l-1.3-1.5c-0.4,0.2-0.9,0.3-1.3,0.5
		c-0.5,0.1-0.9,0.2-1.4,0.3c-1.2,0.1-2.4,0-3.5-0.4c-1.1-0.4-2.1-0.9-2.9-1.6c-0.9-0.7-1.6-1.6-2.1-2.6c-0.6-1-0.9-2.1-1-3.3
		c-0.1-1.2,0-2.4,0.4-3.5c0.4-1.1,0.9-2.1,1.6-2.9c0.7-0.9,1.6-1.6,2.6-2.1c1-0.6,2.1-0.9,3.3-1c1.2-0.1,2.4,0,3.5,0.4
		c1.1,0.4,2.1,0.9,2.9,1.6s1.6,1.6,2.1,2.6C95.3,60.7,95.6,61.8,95.7,63z M87.4,68.6c0.2,0,0.3,0,0.4-0.1l-2.3-2.8l3.1-2.6l2.5,3
		c0.2-0.4,0.4-0.8,0.5-1.3c0.1-0.5,0.1-0.9,0.1-1.4c-0.1-0.6-0.2-1.2-0.5-1.8c-0.3-0.6-0.7-1-1.1-1.4c-0.5-0.4-1-0.7-1.6-0.9
		c-0.6-0.2-1.2-0.3-1.9-0.2c-0.7,0.1-1.3,0.2-1.8,0.5c-0.5,0.3-1,0.7-1.4,1.2c-0.4,0.5-0.7,1-0.9,1.6c-0.2,0.6-0.3,1.2-0.2,1.9
		c0.1,0.7,0.2,1.3,0.5,1.8c0.3,0.6,0.7,1,1.1,1.4c0.5,0.4,1,0.7,1.6,0.9C86.2,68.6,86.8,68.6,87.4,68.6z"/>
	<path class="st1" d="M104.2,71.1c-0.9,0.1-1.8,0-2.6-0.3c-0.8-0.3-1.6-0.7-2.3-1.2c-0.7-0.6-1.3-1.2-1.7-2
		c-0.4-0.8-0.7-1.6-0.8-2.5l-1-11l4-0.4l1,10.9c0.1,0.7,0.4,1.3,1,1.8c0.6,0.4,1.2,0.6,1.9,0.6c0.4,0,0.7-0.1,1-0.3
		c0.3-0.2,0.6-0.4,0.8-0.7c0.2-0.3,0.4-0.6,0.5-0.9c0.1-0.3,0.1-0.7,0.1-1l-1-10.9l4-0.4l1,10.8c0.1,0.9,0,1.8-0.2,2.6
		c-0.3,0.8-0.7,1.6-1.2,2.3c-0.5,0.7-1.2,1.2-2,1.6C106,70.7,105.2,71,104.2,71.1L104.2,71.1z"/>
	<path class="st1" d="M117.3,69.9l-4,0.4l-1.6-17.6l4-0.4L117.3,69.9z"/>
	<path class="st1" d="M132.8,68.4l-14,1.3l6.1-14.3l-6.4,0.6l-0.4-4l13.1-1.2L125.2,65l7.2-0.7L132.8,68.4z"/>
</g>
</svg>
